<?xml version="1.0" encoding="UTF-8" standalone="no"?>
<svg
   xmlns:dc="http://purl.org/dc/elements/1.1/"
   xmlns:cc="http://creativecommons.org/ns#"
   xmlns:rdf="http://www.w3.org/1999/02/22-rdf-syntax-ns#"
   xmlns:svg="http://www.w3.org/2000/svg"
   xmlns="http://www.w3.org/2000/svg"
   xmlns:sodipodi="http://sodipodi.sourceforge.net/DTD/sodipodi-0.dtd"
   xmlns:inkscape="http://www.inkscape.org/namespaces/inkscape"
   id="demo"
   version="1.1"
   width="841mm"
   height="594mm"
   style="enable-background:new 0 0 841 594;"
   xml:space="preserve"
   sodipodi:docname="A1（横）图框+图签（SEI）.svg"
   inkscape:version="1.0.1 (3bc2e813f5, 2020-09-07)"><metadata
   id="metadata712"><rdf:RDF><cc:Work
       rdf:about=""><dc:format>image/svg+xml</dc:format><dc:type
         rdf:resource="http://purl.org/dc/dcmitype/StillImage" /></cc:Work></rdf:RDF></metadata><defs
   id="defs710" /><sodipodi:namedview
   pagecolor="#ffffff"
   bordercolor="#666666"
   borderopacity="1"
   objecttolerance="10"
   gridtolerance="10"
   guidetolerance="10"
   inkscape:pageopacity="0"
   inkscape:pageshadow="2"
   inkscape:window-width="1315"
   inkscape:window-height="877"
   id="namedview708"
   showgrid="false"
   inkscape:zoom="0.12002318"
   inkscape:cx="-362.22743"
   inkscape:cy="966.8936"
   inkscape:window-x="416"
   inkscape:window-y="83"
   inkscape:window-maximized="0"
   inkscape:current-layer="demo" />
<style
   type="text/css"
   id="style362">
	.st0{fill:none;stroke:#000000;stroke-width:0.7087;stroke-linecap:round;stroke-linejoin:round;stroke-miterlimit:10;}
	.st1{font-family:'AdobeSongStd-Light-GBpc-EUC-H';}
	.st2{font-size:2.1186px;}
	.st3{font-size:3.5311px;}
	.st4{font-size:2.5424px;}
	.st5{font-size:3.0857px;}
	.st6{font-size:3.9686px;}
	.st7{font-family:'AdobeMyungjoStd-Medium-KSCpc-EUC-H';}
	.st8{font-size:3.9679px;}
	.st9{font-size:3px;}
	.st10{font-size:3.087px;}
</style>
<g
   id="LWPOLYLINE"
   transform="matrix(3.7780651,0,0,3.7817215,-1.1783411,-0.72187434)">
	<line
   class="st0"
   x1="611.5"
   y1="582.5"
   x2="611.5"
   y2="526.40002"
   id="line364" />
</g>
<g
   id="LWPOLYLINE_1_"
   transform="matrix(3.7780651,0,0,3.7817215,-1.1783411,-0.72187434)">
	<line
   class="st0"
   x1="629.5"
   y1="575.40002"
   x2="629.5"
   y2="526.40002"
   id="line367" />
</g>
<g
   id="LWPOLYLINE_2_"
   transform="matrix(3.7780651,0,0,3.7817215,-1.1783411,-0.72187434)">
	<line
   class="st0"
   x1="611.5"
   y1="533.5"
   x2="651.20001"
   y2="533.5"
   id="line370" />
</g>
<g
   id="LWPOLYLINE_3_"
   transform="matrix(3.7780651,0,0,3.7817215,-1.1783411,-0.72187434)">
	<line
   class="st0"
   x1="611.5"
   y1="540.5"
   x2="651.20001"
   y2="540.5"
   id="line373" />
</g>
<g
   id="LWPOLYLINE_4_"
   transform="matrix(3.7780651,0,0,3.7817215,-1.1783411,-0.72187434)">
	<line
   class="st0"
   x1="611.5"
   y1="547.5"
   x2="651.20001"
   y2="547.5"
   id="line376" />
</g>
<g
   id="LWPOLYLINE_5_"
   transform="matrix(3.7780651,0,0,3.7817215,-1.1783411,-0.72187434)">
	<line
   class="st0"
   x1="611.5"
   y1="554.40002"
   x2="651.20001"
   y2="554.40002"
   id="line379" />
</g>
<g
   id="LWPOLYLINE_6_"
   transform="matrix(3.7780651,0,0,3.7817215,-1.1783411,-0.72187434)">
	<line
   class="st0"
   x1="611.5"
   y1="561.40002"
   x2="651.20001"
   y2="561.40002"
   id="line382" />
</g>
<g
   id="LWPOLYLINE_7_"
   transform="matrix(3.7780651,0,0,3.7817215,-1.1783411,-0.72187434)">
	<line
   class="st0"
   x1="611.5"
   y1="568.40002"
   x2="651.20001"
   y2="568.40002"
   id="line385" />
</g>
<g
   id="LWPOLYLINE_8_"
   transform="matrix(3.7780651,0,0,3.7817215,-1.1783411,-0.72187434)">
	<line
   class="st0"
   x1="611.5"
   y1="575.40002"
   x2="651.20001"
   y2="575.40002"
   id="line388" />
</g>
<g
   id="LWPOLYLINE_9_"
   transform="matrix(3.7780651,0,0,3.7817215,-1.1783411,-0.72187434)">
	<line
   class="st0"
   x1="611.5"
   y1="526.40002"
   x2="651.20001"
   y2="526.40002"
   id="line391" />
</g>
<g
   id="LWPOLYLINE_10_"
   transform="matrix(3.7780651,0,0,3.7817215,-1.1783411,-0.72187434)">
	<line
   class="st0"
   x1="831"
   y1="576"
   x2="828"
   y2="578.90002"
   id="line394" />
</g>
<g
   id="LWPOLYLINE_11_"
   transform="matrix(3.7780651,0,0,3.7817215,-1.1783411,-0.72187434)">
	<line
   class="st0"
   x1="825"
   y1="576"
   x2="828"
   y2="578.90002"
   id="line397" />
</g>
<g
   id="LWPOLYLINE_12_"
   transform="matrix(3.7780651,0,0,3.7817215,-1.1783411,-0.72187434)">
	<line
   class="st0"
   x1="831"
   y1="576"
   x2="828"
   y2="573"
   id="line400" />
</g>
<g
   id="LWPOLYLINE_13_"
   transform="matrix(3.7780651,0,0,3.7817215,-1.1783411,-0.72187434)">
	<line
   class="st0"
   x1="825"
   y1="576"
   x2="828"
   y2="573"
   id="line403" />
</g>
<g
   id="LWPOLYLINE_14_"
   transform="matrix(3.7780651,0,0,3.7817215,-1.1783411,-0.72187434)">
	<line
   class="st0"
   x1="771.20001"
   y1="561.40002"
   x2="831"
   y2="561.40002"
   id="line406" />
</g>
<g
   id="LWPOLYLINE_15_"
   transform="matrix(3.7780651,0,0,3.7817215,-1.1783411,-0.72187434)">
	<line
   class="st0"
   x1="771.20001"
   y1="568.40002"
   x2="831"
   y2="568.40002"
   id="line409" />
</g>
<g
   id="LWPOLYLINE_16_"
   transform="matrix(3.7780651,0,0,3.7817215,-1.1783411,-0.72187434)">
	<line
   class="st0"
   x1="811.20001"
   y1="554.29999"
   x2="811.20001"
   y2="561.40002"
   id="line412" />
</g>
<g
   id="LWPOLYLINE_17_"
   transform="matrix(3.7780651,0,0,3.7817215,-1.1783411,-0.72187434)">
	<line
   class="st0"
   x1="801.29999"
   y1="554.29999"
   x2="801.29999"
   y2="568.40002"
   id="line415" />
</g>
<g
   id="LWPOLYLINE_18_"
   transform="matrix(3.7780651,0,0,3.7817215,-1.1783411,-0.72187434)">
	<line
   class="st0"
   x1="784.29999"
   y1="582.5"
   x2="784.29999"
   y2="554.29999"
   id="line418" />
</g>
<g
   id="LWPOLYLINE_19_"
   transform="matrix(3.7780651,0,0,3.7817215,-1.1783411,-0.72187434)">
	<line
   class="st0"
   x1="771.20001"
   y1="582.5"
   x2="771.20001"
   y2="542.40002"
   id="line421" />
</g>
<g
   id="LWPOLYLINE_20_"
   transform="matrix(3.7780651,0,0,3.7817215,-1.1783411,-0.72187434)">
	<line
   class="st0"
   x1="811.20001"
   y1="470.20001"
   x2="811.20001"
   y2="526.40002"
   id="line424" />
</g>
<g
   id="LWPOLYLINE_21_"
   transform="matrix(3.7780651,0,0,3.7817215,-1.1783411,-0.72187434)">
	<line
   class="st0"
   x1="791.29999"
   y1="470.39999"
   x2="791.29999"
   y2="526.40002"
   id="line427" />
</g>
<g
   id="LWPOLYLINE_22_"
   transform="matrix(3.7780651,0,0,3.7817215,-1.1783411,-0.72187434)">
	<line
   class="st0"
   x1="771.20001"
   y1="470.20001"
   x2="771.20001"
   y2="526.40002"
   id="line430" />
</g>
<g
   id="LWPOLYLINE_23_"
   transform="matrix(3.7780651,0,0,3.7817215,-1.1783411,-0.72187434)">
	<line
   class="st0"
   x1="751.29999"
   y1="470.20001"
   x2="751.29999"
   y2="526.40002"
   id="line433" />
</g>
<g
   id="LWPOLYLINE_24_"
   transform="matrix(3.7780651,0,0,3.7817215,-1.1783411,-0.72187434)">
	<line
   class="st0"
   x1="731.29999"
   y1="470.20001"
   x2="731.29999"
   y2="526.40002"
   id="line436" />
</g>
<g
   id="LWPOLYLINE_25_"
   transform="matrix(3.7780651,0,0,3.7817215,-1.1783411,-0.72187434)">
	<line
   class="st0"
   x1="711.20001"
   y1="470.20001"
   x2="711.20001"
   y2="526.40002"
   id="line439" />
</g>
<g
   id="LWPOLYLINE_26_"
   transform="matrix(3.7780651,0,0,3.7817215,-1.1783411,-0.72187434)">
	<line
   class="st0"
   x1="661.40002"
   y1="470.20001"
   x2="661.40002"
   y2="526.40002"
   id="line442" />
</g>
<g
   id="LWPOLYLINE_27_"
   transform="matrix(3.7780651,0,0,3.7817215,-1.1783411,-0.72187434)">
	<line
   class="st0"
   x1="651.20001"
   y1="554.29999"
   x2="831"
   y2="554.29999"
   id="line445" />
</g>
<g
   id="LWPOLYLINE_28_"
   transform="matrix(3.7780651,0,0,3.7817215,-1.1783411,-0.72187434)">
	<line
   class="st0"
   x1="651.20001"
   y1="542.40002"
   x2="831"
   y2="542.40002"
   id="line448" />
</g>
<g
   id="LWPOLYLINE_29_"
   transform="matrix(3.7780651,0,0,3.7817215,-1.1783411,-0.72187434)">
	<line
   class="st0"
   x1="651.20001"
   y1="526.40002"
   x2="831"
   y2="526.40002"
   id="line451" />
</g>
<g
   id="LWPOLYLINE_30_"
   transform="matrix(3.7780651,0,0,3.7817215,-1.1783411,-0.72187434)">
	<line
   class="st0"
   x1="651.20001"
   y1="512.20001"
   x2="831"
   y2="512.20001"
   id="line454" />
</g>
<g
   id="LWPOLYLINE_31_"
   transform="matrix(3.7780651,0,0,3.7817215,-1.1783411,-0.72187434)">
	<line
   class="st0"
   x1="651.20001"
   y1="505.29999"
   x2="831"
   y2="505.29999"
   id="line457" />
</g>
<g
   id="LWPOLYLINE_32_"
   transform="matrix(3.7780651,0,0,3.7817215,-1.1783411,-0.72187434)">
	<line
   class="st0"
   x1="651.20001"
   y1="498.29999"
   x2="831"
   y2="498.29999"
   id="line460" />
</g>
<g
   id="LWPOLYLINE_33_"
   transform="matrix(3.7780651,0,0,3.7817215,-1.1783411,-0.72187434)">
	<line
   class="st0"
   x1="651.20001"
   y1="491.29999"
   x2="831"
   y2="491.29999"
   id="line463" />
</g>
<g
   id="LWPOLYLINE_34_"
   transform="matrix(3.7780651,0,0,3.7817215,-1.1783411,-0.72187434)">
	<line
   class="st0"
   x1="651.20001"
   y1="484.20001"
   x2="831"
   y2="484.20001"
   id="line466" />
</g>
<g
   id="LWPOLYLINE_35_"
   transform="matrix(3.7780651,0,0,3.7817215,-1.1783411,-0.72187434)">
	<line
   class="st0"
   x1="651.20001"
   y1="477.20001"
   x2="831"
   y2="477.20001"
   id="line469" />
</g>
<g
   id="LWPOLYLINE_36_"
   transform="matrix(3.7780651,0,0,3.7817215,-1.1783411,-0.72187434)">
	<line
   class="st0"
   x1="831"
   y1="582.5"
   x2="611.5"
   y2="582.5"
   id="line472" />
</g>
<g
   id="LWPOLYLINE_37_"
   transform="matrix(3.7780651,0,0,3.7817215,-1.1783411,-0.72187434)">
	<line
   class="st0"
   x1="831"
   y1="470.20001"
   x2="831"
   y2="582.5"
   id="line475" />
</g>
<g
   id="LWPOLYLINE_38_"
   transform="matrix(3.7780651,0,0,3.7817215,-1.1783411,-0.72187434)">
	<line
   class="st0"
   x1="651.20001"
   y1="470.20001"
   x2="831"
   y2="470.20001"
   id="line478" />
</g>
<g
   id="LWPOLYLINE_39_"
   transform="matrix(3.7780651,0,0,3.7817215,-1.1783411,-0.72187434)">
	<line
   class="st0"
   x1="651.20001"
   y1="582.5"
   x2="651.20001"
   y2="470.20001"
   id="line481" />
</g>
<g
   id="TEXT_1_"
   transform="matrix(3.7780651,0,0,3.7817215,-1.1783411,-0.72187434)">
	<text
   transform="matrix(0.75,0,0,1,818.521,552.7484)"
   class="st1 st2"
   id="text484">FROM</text>
</g>
<g
   id="TEXT_2_"
   transform="matrix(3.7780651,0,0,3.7817215,-1.1783411,-0.72187434)">
	<text
   transform="matrix(0.75,0,0,1,809.7039,552.7484)"
   class="st1 st2"
   id="text487">CONSENT</text>
</g>
<g
   id="TEXT_3_"
   transform="matrix(3.7780651,0,0,3.7817215,-1.1783411,-0.72187434)">
	<text
   transform="matrix(0.75,0,0,1,800.88,552.7484)"
   class="st1 st2"
   id="text490">WRITTEN</text>
</g>
<g
   id="TEXT_4_"
   transform="matrix(3.7780651,0,0,3.7817215,-1.1783411,-0.72187434)">
	<text
   transform="matrix(0.75,0,0,1,792.3647,552.6537)"
   class="st1 st2"
   id="text493">WITHOUT</text>
</g>
<g
   id="TEXT_5_"
   transform="matrix(3.7780651,0,0,3.7817215,-1.1783411,-0.72187434)">
	<text
   transform="matrix(0.75,0,0,1,783.6714,552.7484)"
   class="st1 st2"
   id="text496">PROJECT</text>
</g>
<g
   id="TEXT_6_"
   transform="matrix(3.7780651,0,0,3.7817215,-1.1783411,-0.72187434)">
	<text
   transform="matrix(0.75,0,0,1,778.6794,552.7484)"
   class="st1 st2"
   id="text499">THIS</text>
</g>
<g
   id="TEXT_7_"
   transform="matrix(3.7780651,0,0,3.7817215,-1.1783411,-0.72187434)">
	<text
   transform="matrix(0.75,0,0,1,772.9822,552.7484)"
   class="st1 st2"
   id="text502">THAN</text>
</g>
<g
   id="TEXT_8_"
   transform="matrix(3.7780651,0,0,3.7817215,-1.1783411,-0.72187434)">
	<text
   transform="matrix(0.75,0,0,1,822.7863,549.7806)"
   class="st1 st2"
   id="text505">OTHER</text>
</g>
<g
   id="TEXT_9_"
   transform="matrix(3.7780651,0,0,3.7817215,-1.1783411,-0.72187434)">
	<text
   transform="matrix(0.75,0,0,1,813.0125,549.7806)"
   class="st1 st2"
   id="text508">PURPOSES</text>
</g>
<g
   id="TEXT_10_"
   transform="matrix(3.7780651,0,0,3.7817215,-1.1783411,-0.72187434)">
	<text
   transform="matrix(0.75,0,0,1,806.4209,549.7806)"
   class="st1 st2"
   id="text511">OTHER</text>
</g>
<g
   id="TEXT_11_"
   transform="matrix(3.7780651,0,0,3.7817215,-1.1783411,-0.72187434)">
	<text
   transform="matrix(0.75,0,0,1,802.1976,549.7806)"
   class="st1 st2"
   id="text514">FOR</text>
</g>
<g
   id="TEXT_12_"
   transform="matrix(3.7780651,0,0,3.7817215,-1.1783411,-0.72187434)">
	<text
   transform="matrix(0.75,0,0,1,794.5922,549.7806)"
   class="st1 st2"
   id="text517">EMPLOY</text>
</g>
<g
   id="TEXT_13_"
   transform="matrix(3.7780651,0,0,3.7817215,-1.1783411,-0.72187434)">
	<text
   transform="matrix(0.7,0,0,1,791.614,549.7806)"
   class="st1 st2"
   id="text520">OR</text>
</g>
<g
   id="TEXT_14_"
   transform="matrix(3.7780651,0,0,3.7817215,-1.1783411,-0.72187434)">
	<text
   transform="matrix(0.72,0,0,1,780.7535,549.7806)"
   class="st1 st2"
   id="text523">REPRODUCE</text>
</g>
<g
   id="TEXT_15_"
   transform="matrix(3.7780651,0,0,3.7817215,-1.1783411,-0.72187434)">
	<text
   transform="matrix(0.8,0,0,1,776.1792,549.7806)"
   class="st1 st2"
   id="text526">NOT</text>
</g>
<g
   id="TEXT_16_"
   transform="matrix(3.7780651,0,0,3.7817215,-1.1783411,-0.72187434)">
	<text
   transform="matrix(0.8,0,0,1,772.9694,549.7806)"
   class="st1 st2"
   id="text529">DO</text>
</g>
<g
   id="TEXT_21_"
   transform="matrix(3.7780651,0,0,3.7817215,-1.1783411,-0.72187434)">
	<text
   transform="matrix(0.64,0,0,1,827.6359,577.2897)"
   class="st1 st3"
   id="text532">0</text>
</g>
<g
   id="TEXT_22_"
   transform="matrix(3.7780651,0,0,3.7817215,-1.1783411,-0.72187434)">
	<text
   transform="matrix(0.64,0,0,1,826.2279,581.4957)"
   class="st1 st4"
   id="text535">REV.</text>
</g>
<g
   id="TEXT_23_"
   transform="matrix(3.7780651,0,0,3.7817215,-1.1783411,-0.72187434)">
	<text
   transform="matrix(0.68,0,0,1,817.446,567.5599)"
   class="st1 st4"
   id="text538">OF</text>
</g>
<g
   id="TEXT_24_"
   transform="matrix(3.7780651,0,0,3.7817215,-1.1783411,-0.72187434)">
	<text
   transform="matrix(0.68,0,0,1,802.3466,567.5217)"
   class="st1 st4"
   id="text541">SHEET</text>
</g>
<g
   id="TEXT_46_"
   transform="matrix(3.7780651,0,0,3.7817215,-1.1783411,-0.72187434)">
	<text
   transform="matrix(0.7,0,0,1,802.1425,560.6847)"
   class="st1 st4"
   id="text544">CONT.NO.</text>
</g>
<g
   id="TEXT_49_"
   transform="matrix(3.7780651,0,0,3.7817215,-1.1783411,-0.72187434)">
	<text
   transform="matrix(0.7,0,0,1,772.7194,560.7018)"
   class="st1 st4"
   id="text547">DES.STAGE</text>
</g>
<g
   id="TEXT_51_"
   transform="matrix(3.7780651,0,0,3.7817215,-1.1783411,-0.72187434)">
	<text
   transform="matrix(0.8,0,0,1,774.9594,567.3717)"
   class="st1 st2"
   id="text550">SCALE</text>
</g>
<g
   id="TEXT_53_"
   transform="matrix(3.7780651,0,0,3.7817215,-1.1783411,-0.72187434)">
	<text
   transform="matrix(0.6683,0,0,1,815.5159,523.2393)"
   class="st1 st5"
   id="text553">ISSUE DATE</text>
</g>
<g
   id="TEXT_54_"
   transform="matrix(3.7780651,0,0,3.7817215,-1.1783411,-0.72187434)">
	<text
   transform="matrix(0.6866,0,0,1,776.3491,523.2393)"
   class="st1 st5"
   id="text556">FINAL APPR.</text>
</g>
<g
   id="TEXT_55_"
   transform="matrix(3.7780651,0,0,3.7817215,-1.1783411,-0.72187434)">
	<text
   transform="matrix(0.6408,0,0,1,758.5051,523.2393)"
   class="st1 st5"
   id="text559">APPR.</text>
</g>
<g
   id="TEXT_56_"
   transform="matrix(3.7780651,0,0,3.7817215,-1.1783411,-0.72187434)">
	<text
   transform="matrix(0.6408,0,0,1,738.395,523.2393)"
   class="st1 st5"
   id="text562">CHKD.</text>
</g>
<g
   id="TEXT_57_"
   transform="matrix(3.7780651,0,0,3.7817215,-1.1783411,-0.72187434)">
	<text
   transform="matrix(0.6408,0,0,1,717.4834,523.2393)"
   class="st1 st5"
   id="text565">DRAWN</text>
</g>
<g
   id="TEXT_58_"
   transform="matrix(3.7780651,0,0,3.7817215,-1.1783411,-0.72187434)">
	<text
   transform="matrix(0.6957,0,0,1,678.4893,523.2393)"
   class="st1 st5"
   id="text568">DESCRIPTION</text>
</g>
<g
   id="TEXT_59_"
   transform="matrix(3.7780651,0,0,3.7817215,-1.1783411,-0.72187434)">
	<text
   transform="matrix(0.4976,0,0,1,653.5078,523.2393)"
   class="st1 st5"
   id="text571">REV.NO.</text>
</g>
<g
   id="TEXT_61_">
</g>
<g
   id="TEXT_62_"
   transform="matrix(3.7780651,0,0,3.7817215,-1.1783411,-0.72187434)">
	<text
   transform="matrix(0.7559,0,0,1,758.1134,517.9238)"
   id="text579"><tspan
     x="0"
     y="0"
     class="st1 st6"
     id="tspan575">审</tspan><tspan
     x="4"
     y="0"
     class="st7 st6"
     id="tspan577">核</tspan></text>
</g>
<g
   id="TEXT_63_"
   transform="matrix(3.7780651,0,0,3.7817215,-1.1783411,-0.72187434)">
	<text
   transform="matrix(0.7559,0,0,1,738.4905,517.9238)"
   class="st1 st6"
   id="text582">校核</text>
</g>
<g
   id="TEXT_64_"
   transform="matrix(3.7780651,0,0,3.7817215,-1.1783411,-0.72187434)">
	<text
   transform="matrix(0.7559,0,0,1,718.2219,517.9238)"
   class="st1 st6"
   id="text585">设计</text>
</g>
<g
   id="TEXT_65_"
   transform="matrix(3.7780651,0,0,3.7817215,-1.1783411,-0.72187434)">
	<text
   transform="matrix(0.7561,0,0,1,681.0634,517.9236)"
   id="text592"><tspan
     x="0"
     y="0"
     class="st1 st8"
     id="tspan588">说</tspan><tspan
     x="4"
     y="0"
     class="st7 st8"
     id="tspan590">明</tspan></text>
</g>
<g
   id="TEXT_66_"
   transform="matrix(3.7780651,0,0,3.7817215,-1.1783411,-0.72187434)">
	<text
   transform="matrix(0.7561,0,0,1,653.5079,517.9242)"
   class="st1 st8"
   id="text595">修改</text>
</g>
<g
   id="TEXT_67_"
   transform="matrix(3.7780651,0,0,3.7817215,-1.1783411,-0.72187434)">
	<text
   transform="translate(772.9437,581.2399)"
   class="st1 st2"
   id="text598">DWG.NO.</text>
</g>
<g
   id="TEXT_68_"
   transform="matrix(3.7780651,0,0,3.7817215,-1.1783411,-0.72187434)">
	<text
   transform="translate(773.4437,574.6091)"
   class="st1 st2"
   id="text601">JOB.NO</text>
</g>
<g
   id="TEXT_72_"
   transform="matrix(3.7780651,0,0,3.7817215,-1.1783411,-0.72187434)">
	<text
   transform="matrix(0.6666,0,0,1,637.8555,572.1357)"
   class="st1 st9"
   id="text604">会签人</text>
</g>
<g
   id="TEXT_74_"
   transform="matrix(3.7780651,0,0,3.7817215,-1.1783411,-0.72187434)">
	<text
   transform="matrix(0.78,0,0,1,637.5112,574.6307)"
   class="st1 st4"
   id="text607">SIGN.</text>
</g>
<g
   id="TEXT_76_"
   transform="matrix(3.7780651,0,0,3.7817215,-1.1783411,-0.72187434)">
	<text
   transform="matrix(0.65,0,0,1,622.1852,581.5286)"
   class="st1 st4"
   id="text610">COUNTERSIGNED</text>
</g>
<g
   id="LINE_2_"
   transform="matrix(3.7780651,0,0,3.7817215,-1.1783411,-0.72187434)">
	<line
   class="st0"
   x1="611.5"
   y1="582.5"
   x2="431.5"
   y2="582.5"
   id="line613" />
</g>
<g
   id="ACAD_x5F_PROXY_x5F_ENTITY"
   transform="matrix(3.7793712,0,0,3.7899654,-1.1779569,-0.72430487)">
	<polyline
   class="st0"
   points="1,0.5 1,592.5 841,592.5 841,0.5 1,0.5  "
   id="polyline616" />
	<polygon
   points="26.2,10.5 26.2,582.2 25.8,10.5 "
   id="polygon618" />
	<polygon
   points="26.2,582.2 25.8,582.8 25.8,10.5 "
   id="polygon620" />
	<polygon
   points="26.2,582.2 830.8,582.2 25.8,582.8 "
   id="polygon622" />
	<polygon
   points="830.8,582.2 831.2,582.8 25.8,582.8 "
   id="polygon624" />
	<polygon
   points="830.8,582.2 830.8,10.8 831.2,582.8 "
   id="polygon626" />
	<polygon
   points="830.8,10.8 831.2,10.2 831.2,582.8 "
   id="polygon628" />
	<polygon
   points="830.8,10.8 26,10.8 831.2,10.2 "
   id="polygon630" />
	<polygon
   points="26,10.8 26,10.2 831.2,10.2 "
   id="polygon632" />
	<line
   class="st0"
   x1="26"
   y1="10.5"
   x2="1"
   y2="10.5"
   id="line634" />
	<line
   class="st0"
   x1="26"
   y1="35.5"
   x2="1"
   y2="35.5"
   id="line636" />
	<line
   class="st0"
   x1="26"
   y1="60.5"
   x2="1"
   y2="60.5"
   id="line638" />
	<line
   class="st0"
   x1="26"
   y1="85.5"
   x2="1"
   y2="85.5"
   id="line640" />
	<line
   class="st0"
   x1="26"
   y1="110.5"
   x2="1"
   y2="110.5"
   id="line642" />
	<line
   class="st0"
   x1="26"
   y1="135.5"
   x2="1"
   y2="135.5"
   id="line644" />
	<line
   class="st0"
   x1="26"
   y1="160.5"
   x2="1"
   y2="160.5"
   id="line646" />
	<line
   class="st0"
   x1="21"
   y1="10.5"
   x2="21"
   y2="160.5"
   id="line648" />
	<line
   class="st0"
   x1="16"
   y1="10.5"
   x2="16"
   y2="160.5"
   id="line650" />
	<line
   class="st0"
   x1="11"
   y1="10.5"
   x2="11"
   y2="160.5"
   id="line652" />
	<line
   class="st0"
   x1="6"
   y1="10.5"
   x2="6"
   y2="160.5"
   id="line654" />
	<line
   class="st0"
   x1="1"
   y1="10.5"
   x2="1"
   y2="160.5"
   id="line656" />
	<line
   class="st0"
   x1="1"
   y1="296.5"
   x2="31"
   y2="296.5"
   id="line658" />
	<line
   class="st0"
   x1="841"
   y1="296.5"
   x2="826"
   y2="296.5"
   id="line660" />
	<line
   class="st0"
   x1="421"
   y1="0.5"
   x2="421"
   y2="15.5"
   id="line662" />
	<line
   class="st0"
   x1="421"
   y1="592.5"
   x2="421"
   y2="577.5"
   id="line664" />
</g>
<g
   id="TEXT_71_"
   transform="matrix(3.7780651,0,0,3.7817215,-1.1783411,-0.72187434)">
	<text
   transform="matrix(0.6479,0,0,1,616.7656,572.2129)"
   class="st1 st10"
   id="text667">会签专业</text>
</g>
<g
   id="TEXT_73_"
   transform="matrix(3.7780651,0,0,3.7817215,-1.1783411,-0.72187434)">
	<text
   transform="matrix(0.78,0,0,1,617.7181,574.6094)"
   class="st1 st4"
   id="text670">DISC.</text>
</g>
<g
   id="TEXT_75_"
   transform="matrix(3.7780651,0,0,3.7817215,-1.1783411,-0.72187434)">
	<text
   transform="matrix(0.6478,0,0,1,627.498,578.6934)"
   class="st1 st10"
   id="text673">会签</text>
</g>
<g
   id="TEXT_78_"
   transform="matrix(3.7780651,0,0,3.7817215,-1.1783411,-0.72187434)">
	<text
   transform="matrix(0.7559,0,0,1,818.0466,517.9242)"
   class="st1 st6"
   id="text676">日期</text>
</g>
<g
   id="TEXT_80_"
   transform="matrix(3.7780651,0,0,3.7817215,-1.1783411,-0.72187434)">
	<text
   transform="matrix(0.7559,0,0,1,779.3254,517.9237)"
   id="text683"><tspan
     x="0"
     y="0"
     class="st1 st6"
     id="tspan679">审</tspan><tspan
     x="4"
     y="0"
     class="st7 st6"
     id="tspan681">定</tspan></text>
</g>
<g
   id="TEXT_17_"
   transform="matrix(3.7780651,0,0,3.7817215,-1.1783411,-0.72187434)">
	<text
   transform="matrix(0.6479,0,0,1,775.2117,564.9308)"
   class="st1 st10"
   id="text686">比例</text>
</g>
<g
   id="TEXT_18_"
   transform="matrix(3.7780651,0,0,3.7817215,-1.1783411,-0.72187434)">
	<text
   transform="matrix(0.6479,0,0,1,773.2111,557.8735)"
   class="st1 st10"
   id="text689">设计阶段</text>
</g>
<text
   transform="scale(0.80453314,1.2429569)"
   class="st1 st10"
   id="text692"
   x="3634.2126"
   y="1740.3025"
   style="stroke-width:3.04253">项目号</text>
<g
   id="TEXT_20_"
   transform="matrix(3.7780651,0,0,3.7817215,-1.1783411,-0.72187434)">
	<text
   transform="matrix(0.6479,0,0,1,775.2119,578.6934)"
   class="st1 st10"
   id="text694">图号</text>
</g>
<text
   transform="scale(0.80453314,1.2429569)"
   class="st1 st10"
   id="text697"
   x="3771.3901"
   y="1696.7592"
   style="stroke-width:3.04253">合同号</text>
<text
   transform="scale(0.80453314,1.2429569)"
   class="st1 st10"
   id="text699"
   x="3771.6245"
   y="1718.2314"
   style="stroke-width:3.04253">第</text>
<text
   transform="scale(0.80453314,1.2429569)"
   class="st1 st10"
   id="text701"
   x="3806.5071"
   y="1718.233"
   style="stroke-width:3.04253">张</text>
<text
   transform="scale(0.80453314,1.2429569)"
   class="st1 st10"
   id="text703"
   x="3837.615"
   y="1718.233"
   style="stroke-width:3.04253">共</text>
<text
   transform="scale(0.80453314,1.2429569)"
   class="st1 st10"
   id="text705"
   x="3876.8264"
   y="1718.2324"
   style="stroke-width:3.04253">张</text>
</svg>
