<?xml version="1.0" encoding="UTF-8" standalone="no"?>
<svg
   xmlns:dc="http://purl.org/dc/elements/1.1/"
   xmlns:cc="http://creativecommons.org/ns#"
   xmlns:rdf="http://www.w3.org/1999/02/22-rdf-syntax-ns#"
   xmlns:svg="http://www.w3.org/2000/svg"
   xmlns="http://www.w3.org/2000/svg"
   xmlns:sodipodi="http://sodipodi.sourceforge.net/DTD/sodipodi-0.dtd"
   xmlns:inkscape="http://www.inkscape.org/namespaces/inkscape"
   width="100mm"
   height="100mm"
   viewBox="0 0 100 100"
   version="1.1"
   id="demo"
   inkscape:version="1.0.1 (3bc2e813f5, 2020-09-07)"
   sodipodi:docname="列管式反应器.svg">
  <defs
     id="defs10">
    <clipPath
       clipPathUnits="userSpaceOnUse"
       id="clipEmfPath1-8">
      <path
         d="M -301.30726,-151.98685 H 937.25223 V 431.96262 H -301.30726 Z"
         id="path128-1" />
    </clipPath>
    <clipPath
       clipPathUnits="userSpaceOnUse"
       id="clipEmfPath1-8-2">
      <path
         d="M -301.30726,-151.98685 H 937.25223 V 431.96262 H -301.30726 Z"
         id="path128-1-9" />
    </clipPath>
  </defs>
  <sodipodi:namedview
     id="base"
     pagecolor="#ffffff"
     bordercolor="#666666"
     borderopacity="1.0"
     inkscape:pageopacity="0.0"
     inkscape:pageshadow="2"
     inkscape:zoom="5.6"
     inkscape:cx="160.57888"
     inkscape:cy="265.61046"
     inkscape:document-units="mm"
     inkscape:current-layer="layer1"
     inkscape:document-rotation="0"
     showgrid="false"
     inkscape:window-width="1680"
     inkscape:window-height="988"
     inkscape:window-x="-8"
     inkscape:window-y="-8"
     inkscape:window-maximized="1" />
  <metadata
     id="metadata13">
    <rdf:RDF>
      <cc:Work
         rdf:about="">
        <dc:format>image/svg+xml</dc:format>
        <dc:type
           rdf:resource="http://purl.org/dc/dcmitype/StillImage" />
        <dc:title />
      </cc:Work>
    </rdf:RDF>
  </metadata>
  <g
     inkscape:label="图层 1"
     inkscape:groupmode="layer"
     id="layer1">
    <path
       style="display:inline;fill:none;stroke:#000000;stroke-width:0.25;stroke-linecap:butt;stroke-linejoin:miter;stroke-miterlimit:4;stroke-dasharray:none;stroke-opacity:1"
       d="m 39.907021,28.824383 h 20"
       id="path1741" />
    <g
       id="g973">
      <path
         style="display:inline;fill:none;fill-opacity:1;stroke:#000000;stroke-width:1.30243519;stroke-linecap:round;stroke-linejoin:round;stroke-miterlimit:4;stroke-dasharray:none;stroke-opacity:1"
         clip-path="url(#clipEmfPath1-8)"
         d="m 145.31506,77.068483 v -1.057469 l -0.0756,-1.057469 -0.11341,-1.057469 -0.1512,-1.095236 -0.18901,-1.019702 -0.26461,-1.057469 -0.2646,-1.019702 -0.34022,-1.019702 -0.37801,-1.019703 -0.37801,-0.981935 -0.45362,-0.981935 -0.49141,-0.944169 -0.52922,-0.944169 -0.56702,-0.906402 -0.60482,-0.868635 -0.64263,-0.868635 -0.68042,-0.830869 -0.71822,-0.793102 -0.75603,-0.793101 -0.75603,-0.717568 -0.79382,-0.717569 -0.83163,-0.679801 -0.86943,-0.642035 -0.86943,-0.604268 -0.94503,-0.566501 -0.90723,-0.528735 -0.94504,-0.490967 -0.98283,-0.453201 -0.98283,-0.415435 -1.02064,-0.3399 -1.02063,-0.339901 -1.02064,-0.302134 -1.05844,-0.2266 -1.05843,-0.188834 -1.05844,-0.151067 -1.05843,-0.1133 -1.05844,-0.07553 -1.09624,-0.03777 -1.05843,0.03777 -1.05844,0.07553 -1.09624,0.1133 -1.05843,0.151067 -1.02064,0.188834 -1.05844,0.2266 -1.02063,0.302134 -1.02064,0.339901 -1.02063,0.3399 -0.98283,0.415435 -0.98284,0.453201 -0.94503,0.490967 -0.94503,0.528735 -0.90723,0.566501 -0.86943,0.604268 -0.86943,0.642035 -0.83163,0.679801 -0.79383,0.717569 -0.79383,0.717568 -0.71822,0.793101 -0.718226,0.793102 -0.680424,0.830869 -0.642622,0.868635 -0.604821,0.868635 -0.567019,0.906402 -0.529218,0.944169 -0.491417,0.944169 -0.453616,0.981935 -0.415814,0.981935 -0.378013,1.019703 -0.30241,1.019702 -0.302411,1.019702 -0.226807,1.057469 -0.189007,1.019702 -0.151205,1.095236 -0.113404,1.057469 -0.0756,1.057469 -0.0378,1.057469"
         id="path138-6"
         transform="matrix(0.38435857,0,0,0.38343451,4.0002039,-6.051078)" />
      <path
         style="display:inline;fill:none;stroke:#000000;stroke-width:0.5;stroke-linecap:butt;stroke-linejoin:miter;stroke-miterlimit:4;stroke-dasharray:none;stroke-opacity:1"
         d="m 59.846168,23.499639 v 50"
         id="path1693-7" />
      <path
         style="display:inline;fill:none;stroke:#000000;stroke-width:0.5;stroke-linecap:butt;stroke-linejoin:miter;stroke-miterlimit:4;stroke-dasharray:none;stroke-opacity:1"
         d="m 39.923051,23.499639 v 50"
         id="path1693" />
      <path
         style="display:inline;fill:none;fill-opacity:1;stroke:#000000;stroke-width:1.30242418;stroke-linecap:round;stroke-linejoin:round;stroke-miterlimit:4;stroke-dasharray:none;stroke-opacity:1"
         clip-path="url(#clipEmfPath1-8-2)"
         d="m 145.31506,77.068483 v -1.057469 l -0.0756,-1.057469 -0.11341,-1.057469 -0.1512,-1.095236 -0.18901,-1.019702 -0.26461,-1.057469 -0.2646,-1.019702 -0.34022,-1.019702 -0.37801,-1.019703 -0.37801,-0.981935 -0.45362,-0.981935 -0.49141,-0.944169 -0.52922,-0.944169 -0.56702,-0.906402 -0.60482,-0.868635 -0.64263,-0.868635 -0.68042,-0.830869 -0.71822,-0.793102 -0.75603,-0.793101 -0.75603,-0.717568 -0.79382,-0.717569 -0.83163,-0.679801 -0.86943,-0.642035 -0.86943,-0.604268 -0.94503,-0.566501 -0.90723,-0.528735 -0.94504,-0.490967 -0.98283,-0.453201 -0.98283,-0.415435 -1.02064,-0.3399 -1.02063,-0.339901 -1.02064,-0.302134 -1.05844,-0.2266 -1.05843,-0.188834 -1.05844,-0.151067 -1.05843,-0.1133 -1.05844,-0.07553 -1.09624,-0.03777 -1.05843,0.03777 -1.05844,0.07553 -1.09624,0.1133 -1.05843,0.151067 -1.02064,0.188834 -1.05844,0.2266 -1.02063,0.302134 -1.02064,0.339901 -1.02063,0.3399 -0.98283,0.415435 -0.98284,0.453201 -0.94503,0.490967 -0.94503,0.528735 -0.90723,0.566501 -0.86943,0.604268 -0.86943,0.642035 -0.83163,0.679801 -0.79383,0.717569 -0.79383,0.717568 -0.71822,0.793101 -0.718226,0.793102 -0.680424,0.830869 -0.642622,0.868635 -0.604821,0.868635 -0.567019,0.906402 -0.529218,0.944169 -0.491417,0.944169 -0.453616,0.981935 -0.415814,0.981935 -0.378013,1.019703 -0.30241,1.019702 -0.302411,1.019702 -0.226807,1.057469 -0.189007,1.019702 -0.151205,1.095236 -0.113404,1.057469 -0.0756,1.057469 -0.0378,1.057469"
         id="path138-6-1"
         transform="matrix(0.38435764,0,0,-0.38344192,4.0003389,103.05358)" />
    </g>
    <path
       style="display:inline;fill:none;stroke:#000000;stroke-width:0.25;stroke-linecap:butt;stroke-linejoin:miter;stroke-miterlimit:4;stroke-dasharray:none;stroke-opacity:1"
       d="m 39.885991,68.174903 h 20"
       id="path1741-3" />
    <path
       style="display:inline;fill:none;stroke:#000000;stroke-width:0.25;stroke-linecap:butt;stroke-linejoin:miter;stroke-miterlimit:4;stroke-dasharray:none;stroke-opacity:1"
       d="m 42.775051,28.823413 v 39.34522"
       id="path1693-78" />
    <path
       style="display:inline;fill:none;stroke:#000000;stroke-width:0.25;stroke-linecap:butt;stroke-linejoin:miter;stroke-miterlimit:4;stroke-dasharray:none;stroke-opacity:1"
       d="m 54.152781,28.823413 v 39.34522"
       id="path1693-78-2" />
    <path
       style="display:inline;fill:none;stroke:#000000;stroke-width:0.25;stroke-linecap:butt;stroke-linejoin:miter;stroke-miterlimit:4;stroke-dasharray:none;stroke-opacity:1"
       d="m 56.997211,28.823413 v 39.34522"
       id="path1693-78-2-5" />
    <path
       style="display:inline;fill:none;stroke:#000000;stroke-width:0.25;stroke-linecap:butt;stroke-linejoin:miter;stroke-miterlimit:4;stroke-dasharray:none;stroke-opacity:1"
       d="m 48.463911,28.823413 v 39.34522"
       id="path1693-78-3" />
    <path
       style="display:inline;fill:none;stroke:#000000;stroke-width:0.25;stroke-linecap:butt;stroke-linejoin:miter;stroke-miterlimit:4;stroke-dasharray:none;stroke-opacity:1"
       d="m 45.619481,28.823413 v 39.34522"
       id="path1693-78-0" />
    <path
       style="display:inline;fill:none;stroke:#000000;stroke-width:0.25;stroke-linecap:butt;stroke-linejoin:miter;stroke-miterlimit:4;stroke-dasharray:none;stroke-opacity:1"
       d="m 51.308341,28.823413 v 39.34522"
       id="path1693-78-3-0" />
    <circle
       style="display:inline;fill:#ff0000;fill-opacity:1;stroke:none;stroke-width:0.0436519;stroke-miterlimit:4;stroke-dasharray:none;stroke-opacity:1"
       id="path2506"
       cx="49.886227"
       cy="13.591312"
       r="1" />
    <circle
       style="display:inline;fill:#ff0000;fill-opacity:1;stroke:none;stroke-width:0.0436519;stroke-miterlimit:4;stroke-dasharray:none;stroke-opacity:1"
       id="path2506-9"
       cx="49.886227"
       cy="83.321472"
       r="1" />
    <circle
       style="display:inline;fill:#ff0000;fill-opacity:1;stroke:none;stroke-width:0.0436519;stroke-miterlimit:4;stroke-dasharray:none;stroke-opacity:1"
       id="path2506-1"
       cx="39.895519"
       cy="34.988461"
       r="1" />
    <circle
       style="display:inline;fill:#ff0000;fill-opacity:1;stroke:none;stroke-width:0.0436519;stroke-miterlimit:4;stroke-dasharray:none;stroke-opacity:1"
       id="path2506-1-3"
       cx="59.867764"
       cy="61.15255"
       r="1" />
  </g>
</svg>
