<?xml version="1.0" encoding="UTF-8" standalone="no"?>
<!-- Created with Inkscape (http://www.inkscape.org/) -->

<svg
   xmlns:dc="http://purl.org/dc/elements/1.1/"
   xmlns:cc="http://creativecommons.org/ns#"
   xmlns:rdf="http://www.w3.org/1999/02/22-rdf-syntax-ns#"
   xmlns:svg="http://www.w3.org/2000/svg"
   xmlns="http://www.w3.org/2000/svg"
   xmlns:sodipodi="http://sodipodi.sourceforge.net/DTD/sodipodi-0.dtd"
   xmlns:inkscape="http://www.inkscape.org/namespaces/inkscape"
   width="744.09448819"
   height="1052.3622047"
   id="svg2"
   version="1.1"
   inkscape:version="0.48.2 r9819"
   sodipodi:docname="新建文档 1">
  <defs
     id="defs4">
    <filter
       height="1.0000216"
       y="-1.0799998e-05"
       width="1.0000216"
       x="-1.0799998e-05"
       id="filter867"
       style="color-interpolation-filters:sRGB"
       inkscape:collect="always">
      <feGaussianBlur
         id="feGaussianBlur869"
         stdDeviation="0.00089999986"
         inkscape:collect="always" />
    </filter>
  </defs>
  <sodipodi:namedview
     id="base"
     pagecolor="#ffffff"
     bordercolor="#666666"
     borderopacity="1.0"
     inkscape:pageopacity="0.0"
     inkscape:pageshadow="2"
     inkscape:zoom="0.49497475"
     inkscape:cx="519.99343"
     inkscape:cy="582.63987"
     inkscape:document-units="px"
     inkscape:current-layer="layer1"
     showgrid="false"
     inkscape:window-width="1920"
     inkscape:window-height="1005"
     inkscape:window-x="-9"
     inkscape:window-y="-9"
     inkscape:window-maximized="1" />
  <metadata
     id="metadata7">
    <rdf:RDF>
      <cc:Work
         rdf:about="">
        <dc:format>image/svg+xml</dc:format>
        <dc:type
           rdf:resource="http://purl.org/dc/dcmitype/StillImage" />
        <dc:title></dc:title>
      </cc:Work>
    </rdf:RDF>
  </metadata>
  <g
     inkscape:label="Layer 1"
     inkscape:groupmode="layer"
     id="layer1">
    <rect
       style="opacity:0.98900009;fill:none;stroke:#e9de00;stroke-width:1;stroke-miterlimit:4;stroke-opacity:1;stroke-dasharray:none;filter:url(#filter867)"
       id="rect22"
       width="200"
       height="200"
       x="-15.875"
       y="42.333336"
       transform="matrix(2.6286612,0,0,2.6286612,76.987916,150.02101)" />
    <ellipse
       d="m -31.349152,144.5327 c 0,55.22758 -44.772249,99.99837 -100.001618,99.99837 -55.22937,0 -100.00162,-44.77079 -100.00162,-99.99837 0,-55.227578 44.77225,-99.998375 100.00162,-99.998375 55.229369,0 100.001618,44.770797 100.001618,99.998375 z"
       sodipodi:ry="99.998375"
       sodipodi:rx="100.00162"
       sodipodi:cy="144.5327"
       sodipodi:cx="-131.35077"
       style="fill:none;stroke-width:0.45016101"
       id="path26"
       cx="-131.35077"
       cy="144.5327"
       rx="100.00162"
       ry="99.998375"
       transform="matrix(3.5428178,0.05887421,-0.05530627,3.5428754,83.885997,-3.3970937)" />
    <path
       inkscape:connector-curvature="0"
       style="opacity:0.98900003;fill:none;stroke:#e9de00;stroke-width:7.51050568;stroke-miterlimit:4;stroke-opacity:1;stroke-dasharray:none"
       d="M 246.13686,773.87538 C 216.56037,767.99885 179.27272,752.5648 153.59437,735.57032 137.03589,724.61156 97.76324,684.77336 86.913148,667.92884 75.843704,650.74379 60.378135,618.42379 54.460322,600.10884 42.459116,562.96641 41.631895,502.9802 52.55582,462.00242 75.707817,375.15475 147.2137,305.94018 236.81803,283.64464 c 14.44246,-3.5936 22.75389,-4.22681 54.7813,-4.17353 34.0976,0.0568 39.58475,0.55392 56.63356,5.13162 44.79651,12.0281 79.52873,31.87109 112.25453,64.13254 39.22325,38.66676 64.19275,83.9421 73.7008,133.63612 3.28378,17.16274 3.75457,67.10339 0.80395,85.28307 -7.98879,49.22185 -35.16142,101.76286 -71.33826,137.93969 -28.32485,28.32484 -67.57647,51.8379 -103.9456,62.26688 -30.84176,8.844 -84.9171,11.70763 -113.57145,6.01435 z"
       id="path877" />
    <path
       style="fill:#000000;fill-opacity:0;stroke:#d5cd2b;stroke-width:2.22559977;stroke-linecap:butt;stroke-linejoin:miter;stroke-miterlimit:4;stroke-opacity:0.99435024;stroke-dasharray:none"
       d="m 46.979828,535.32299 492.354782,1.4988"
       id="path3009"
       inkscape:connector-curvature="0" />
    <text
       xml:space="preserve"
       style="font-size:35.96679688px;font-style:normal;font-weight:normal;line-height:125%;letter-spacing:0px;word-spacing:0px;fill:#000000;fill-opacity:1;stroke:none;font-family:Sans"
       x="304.04294"
       y="494.67343"
       id="text3779"
       sodipodi:linespacing="125%"
       transform="scale(0.9779251,1.0225732)"><tspan
         sodipodi:role="line"
         id="tspan3781"
         x="304.04294"
         y="494.67343"
         style="font-size:107.90039825px;text-align:center;text-anchor:middle">FFIC</tspan><tspan
         sodipodi:role="line"
         x="304.04294"
         y="629.54895"
         id="tspan3783"
         style="font-size:107.90039825px;text-align:center;text-anchor:middle">123456</tspan></text>
    <text
       xml:space="preserve"
       style="font-size:39.14672852px;font-style:normal;font-weight:normal;line-height:125%;letter-spacing:0px;word-spacing:0px;fill:#000000;fill-opacity:1;stroke:none;font-family:Sans"
       x="722.39679"
       y="296.82666"
       id="text3779-4"
       sodipodi:linespacing="125%"
       transform="scale(0.91181376,1.0967152)"><tspan
         sodipodi:role="line"
         x="722.39679"
         y="296.82666"
         id="tspan3783-9"
         style="font-size:117.44018555px;text-align:center;text-anchor:middle">HH</tspan><tspan
         sodipodi:role="line"
         x="722.39679"
         y="443.62692"
         style="font-size:117.44018555px;text-align:center;text-anchor:middle"
         id="tspan3811">H</tspan><tspan
         sodipodi:role="line"
         x="722.39679"
         y="590.42712"
         style="font-size:117.44018555px;text-align:center;text-anchor:middle"
         id="tspan3813">L</tspan><tspan
         sodipodi:role="line"
         x="722.39679"
         y="737.22736"
         style="font-size:117.44018555px;text-align:center;text-anchor:middle"
         id="tspan3815">LL</tspan></text>
  </g>
</svg>
