<?xml version="1.0" encoding="utf-8"?>
<!-- Generator: Adobe Illustrator 25.0.1, SVG Export Plug-In . SVG Version: 6.00 Build 0)  -->
<svg id="demo" version="1.1" xmlns="http://www.w3.org/2000/svg" xmlns:xlink="http://www.w3.org/1999/xlink" x="0px" y="0px"
	 viewBox="0 0 841 594" style="enable-background:new 0 0 841 594;" xml:space="preserve">
<style type="text/css">
	.st0{fill:none;stroke:#000000;stroke-width:0.7087;stroke-linecap:round;stroke-linejoin:round;stroke-miterlimit:10;}
	.st1{font-family:'AdobeSongStd-Light-GBpc-EUC-H';}
	.st2{font-size:2.1186px;}
	.st3{font-size:3.5311px;}
	.st4{font-size:2.5424px;}
	.st5{font-size:3.0857px;}
	.st6{font-size:3.9686px;}
	.st7{font-family:'AdobeMyungjoStd-Medium-KSCpc-EUC-H';}
	.st8{font-size:3.9679px;}
	.st9{font-size:3px;}
	.st10{font-size:3.087px;}
</style>
<g id="LWPOLYLINE">
	<line class="st0" x1="611.5" y1="582.5" x2="611.5" y2="526.4"/>
</g>
<g id="LWPOLYLINE_1_">
	<line class="st0" x1="629.5" y1="575.4" x2="629.5" y2="526.4"/>
</g>
<g id="LWPOLYLINE_2_">
	<line class="st0" x1="611.5" y1="533.5" x2="651.2" y2="533.5"/>
</g>
<g id="LWPOLYLINE_3_">
	<line class="st0" x1="611.5" y1="540.5" x2="651.2" y2="540.5"/>
</g>
<g id="LWPOLYLINE_4_">
	<line class="st0" x1="611.5" y1="547.5" x2="651.2" y2="547.5"/>
</g>
<g id="LWPOLYLINE_5_">
	<line class="st0" x1="611.5" y1="554.4" x2="651.2" y2="554.4"/>
</g>
<g id="LWPOLYLINE_6_">
	<line class="st0" x1="611.5" y1="561.4" x2="651.2" y2="561.4"/>
</g>
<g id="LWPOLYLINE_7_">
	<line class="st0" x1="611.5" y1="568.4" x2="651.2" y2="568.4"/>
</g>
<g id="LWPOLYLINE_8_">
	<line class="st0" x1="611.5" y1="575.4" x2="651.2" y2="575.4"/>
</g>
<g id="LWPOLYLINE_9_">
	<line class="st0" x1="611.5" y1="526.4" x2="651.2" y2="526.4"/>
</g>
<g id="LWPOLYLINE_10_">
	<line class="st0" x1="831" y1="576" x2="828" y2="578.9"/>
</g>
<g id="LWPOLYLINE_11_">
	<line class="st0" x1="825" y1="576" x2="828" y2="578.9"/>
</g>
<g id="LWPOLYLINE_12_">
	<line class="st0" x1="831" y1="576" x2="828" y2="573"/>
</g>
<g id="LWPOLYLINE_13_">
	<line class="st0" x1="825" y1="576" x2="828" y2="573"/>
</g>
<g id="LWPOLYLINE_14_">
	<line class="st0" x1="771.2" y1="561.4" x2="831" y2="561.4"/>
</g>
<g id="LWPOLYLINE_15_">
	<line class="st0" x1="771.2" y1="568.4" x2="831" y2="568.4"/>
</g>
<g id="LWPOLYLINE_16_">
	<line class="st0" x1="811.2" y1="554.3" x2="811.2" y2="561.4"/>
</g>
<g id="LWPOLYLINE_17_">
	<line class="st0" x1="801.3" y1="554.3" x2="801.3" y2="568.4"/>
</g>
<g id="LWPOLYLINE_18_">
	<line class="st0" x1="784.3" y1="582.5" x2="784.3" y2="554.3"/>
</g>
<g id="LWPOLYLINE_19_">
	<line class="st0" x1="771.2" y1="582.5" x2="771.2" y2="542.4"/>
</g>
<g id="LWPOLYLINE_20_">
	<line class="st0" x1="811.2" y1="470.2" x2="811.2" y2="526.4"/>
</g>
<g id="LWPOLYLINE_21_">
	<line class="st0" x1="791.3" y1="470.4" x2="791.3" y2="526.4"/>
</g>
<g id="LWPOLYLINE_22_">
	<line class="st0" x1="771.2" y1="470.2" x2="771.2" y2="526.4"/>
</g>
<g id="LWPOLYLINE_23_">
	<line class="st0" x1="751.3" y1="470.2" x2="751.3" y2="526.4"/>
</g>
<g id="LWPOLYLINE_24_">
	<line class="st0" x1="731.3" y1="470.2" x2="731.3" y2="526.4"/>
</g>
<g id="LWPOLYLINE_25_">
	<line class="st0" x1="711.2" y1="470.2" x2="711.2" y2="526.4"/>
</g>
<g id="LWPOLYLINE_26_">
	<line class="st0" x1="661.4" y1="470.2" x2="661.4" y2="526.4"/>
</g>
<g id="LWPOLYLINE_27_">
	<line class="st0" x1="651.2" y1="554.3" x2="831" y2="554.3"/>
</g>
<g id="LWPOLYLINE_28_">
	<line class="st0" x1="651.2" y1="542.4" x2="831" y2="542.4"/>
</g>
<g id="LWPOLYLINE_29_">
	<line class="st0" x1="651.2" y1="526.4" x2="831" y2="526.4"/>
</g>
<g id="LWPOLYLINE_30_">
	<line class="st0" x1="651.2" y1="512.2" x2="831" y2="512.2"/>
</g>
<g id="LWPOLYLINE_31_">
	<line class="st0" x1="651.2" y1="505.3" x2="831" y2="505.3"/>
</g>
<g id="LWPOLYLINE_32_">
	<line class="st0" x1="651.2" y1="498.3" x2="831" y2="498.3"/>
</g>
<g id="LWPOLYLINE_33_">
	<line class="st0" x1="651.2" y1="491.3" x2="831" y2="491.3"/>
</g>
<g id="LWPOLYLINE_34_">
	<line class="st0" x1="651.2" y1="484.2" x2="831" y2="484.2"/>
</g>
<g id="LWPOLYLINE_35_">
	<line class="st0" x1="651.2" y1="477.2" x2="831" y2="477.2"/>
</g>
<g id="LWPOLYLINE_36_">
	<line class="st0" x1="831" y1="582.5" x2="611.5" y2="582.5"/>
</g>
<g id="LWPOLYLINE_37_">
	<line class="st0" x1="831" y1="470.2" x2="831" y2="582.5"/>
</g>
<g id="LWPOLYLINE_38_">
	<line class="st0" x1="651.2" y1="470.2" x2="831" y2="470.2"/>
</g>
<g id="LWPOLYLINE_39_">
	<line class="st0" x1="651.2" y1="582.5" x2="651.2" y2="470.2"/>
</g>
<g id="TEXT_1_">
	<text transform="matrix(0.75 0 0 1 818.521 552.7484)" class="st1 st2">FROM</text>
</g>
<g id="TEXT_2_">
	<text transform="matrix(0.75 0 0 1 809.7039 552.7484)" class="st1 st2">CONSENT</text>
</g>
<g id="TEXT_3_">
	<text transform="matrix(0.75 0 0 1 800.88 552.7484)" class="st1 st2">WRITTEN</text>
</g>
<g id="TEXT_4_">
	<text transform="matrix(0.75 0 0 1 792.3647 552.6537)" class="st1 st2">WITHOUT</text>
</g>
<g id="TEXT_5_">
	<text transform="matrix(0.75 0 0 1 783.6714 552.7484)" class="st1 st2">PROJECT</text>
</g>
<g id="TEXT_6_">
	<text transform="matrix(0.75 0 0 1 778.6794 552.7484)" class="st1 st2">THIS</text>
</g>
<g id="TEXT_7_">
	<text transform="matrix(0.75 0 0 1 772.9822 552.7484)" class="st1 st2">THAN</text>
</g>
<g id="TEXT_8_">
	<text transform="matrix(0.75 0 0 1 822.7863 549.7806)" class="st1 st2">OTHER</text>
</g>
<g id="TEXT_9_">
	<text transform="matrix(0.75 0 0 1 813.0125 549.7806)" class="st1 st2">PURPOSES</text>
</g>
<g id="TEXT_10_">
	<text transform="matrix(0.75 0 0 1 806.4209 549.7806)" class="st1 st2">OTHER</text>
</g>
<g id="TEXT_11_">
	<text transform="matrix(0.75 0 0 1 802.1976 549.7806)" class="st1 st2">FOR</text>
</g>
<g id="TEXT_12_">
	<text transform="matrix(0.75 0 0 1 794.5922 549.7806)" class="st1 st2">EMPLOY</text>
</g>
<g id="TEXT_13_">
	<text transform="matrix(0.7 0 0 1 791.614 549.7806)" class="st1 st2">OR</text>
</g>
<g id="TEXT_14_">
	<text transform="matrix(0.72 0 0 1 780.7535 549.7806)" class="st1 st2">REPRODUCE</text>
</g>
<g id="TEXT_15_">
	<text transform="matrix(0.8 0 0 1 776.1792 549.7806)" class="st1 st2">NOT</text>
</g>
<g id="TEXT_16_">
	<text transform="matrix(0.8 0 0 1 772.9694 549.7806)" class="st1 st2">DO</text>
</g>
<g id="TEXT_21_">
	<text transform="matrix(0.64 0 0 1 827.6359 577.2897)" class="st1 st3">0</text>
</g>
<g id="TEXT_22_">
	<text transform="matrix(0.64 0 0 1 826.2279 581.4957)" class="st1 st4">REV.</text>
</g>
<g id="TEXT_23_">
	<text transform="matrix(0.68 0 0 1 817.446 567.5599)" class="st1 st4">OF</text>
</g>
<g id="TEXT_24_">
	<text transform="matrix(0.68 0 0 1 802.3466 567.5217)" class="st1 st4">SHEET</text>
</g>
<g id="TEXT_46_">
	<text transform="matrix(0.7 0 0 1 802.1425 560.6847)" class="st1 st4">CONT.NO.</text>
</g>
<g id="TEXT_49_">
	<text transform="matrix(0.7 0 0 1 772.7194 560.7018)" class="st1 st4">DES.STAGE</text>
</g>
<g id="TEXT_51_">
	<text transform="matrix(0.8 0 0 1 774.9594 567.3717)" class="st1 st2">SCALE</text>
</g>
<g id="TEXT_53_">
	<text transform="matrix(0.6683 0 0 1 815.5159 523.2393)" class="st1 st5">ISSUE DATE</text>
</g>
<g id="TEXT_54_">
	<text transform="matrix(0.6866 0 0 1 776.3491 523.2393)" class="st1 st5">FINAL APPR.</text>
</g>
<g id="TEXT_55_">
	<text transform="matrix(0.6408 0 0 1 758.5051 523.2393)" class="st1 st5">APPR.</text>
</g>
<g id="TEXT_56_">
	<text transform="matrix(0.6408 0 0 1 738.395 523.2393)" class="st1 st5">CHKD.</text>
</g>
<g id="TEXT_57_">
	<text transform="matrix(0.6408 0 0 1 717.4834 523.2393)" class="st1 st5">DRAWN</text>
</g>
<g id="TEXT_58_">
	<text transform="matrix(0.6957 0 0 1 678.4893 523.2393)" class="st1 st5">DESCRIPTION</text>
</g>
<g id="TEXT_59_">
	<text transform="matrix(0.4976 0 0 1 653.5078 523.2393)" class="st1 st5">REV.NO.</text>
</g>
<g id="TEXT_61_">
</g>
<g id="TEXT_62_">
	<text transform="matrix(0.7559 0 0 1 758.1134 517.9238)"><tspan x="0" y="0" class="st1 st6">审</tspan><tspan x="4" y="0" class="st7 st6">核</tspan></text>
</g>
<g id="TEXT_63_">
	<text transform="matrix(0.7559 0 0 1 738.4905 517.9238)" class="st1 st6">校核</text>
</g>
<g id="TEXT_64_">
	<text transform="matrix(0.7559 0 0 1 718.2219 517.9238)" class="st1 st6">设计</text>
</g>
<g id="TEXT_65_">
	<text transform="matrix(0.7561 0 0 1 681.0634 517.9236)"><tspan x="0" y="0" class="st1 st8">说</tspan><tspan x="4" y="0" class="st7 st8">明</tspan></text>
</g>
<g id="TEXT_66_">
	<text transform="matrix(0.7561 0 0 1 653.5079 517.9242)" class="st1 st8">修改</text>
</g>
<g id="TEXT_67_">
	<text transform="matrix(1 0 0 1 772.9437 581.2399)" class="st1 st2">DWG.NO.</text>
</g>
<g id="TEXT_68_">
	<text transform="matrix(1 0 0 1 773.4437 574.6091)" class="st1 st2">JOB.NO</text>
</g>
<g id="TEXT_72_">
	<text transform="matrix(0.6666 0 0 1 637.8555 572.1357)" class="st1 st9">会签人</text>
</g>
<g id="TEXT_74_">
	<text transform="matrix(0.78 0 0 1 637.5112 574.6307)" class="st1 st4">SIGN.</text>
</g>
<g id="TEXT_76_">
	<text transform="matrix(0.65 0 0 1 622.1852 581.5286)" class="st1 st4">COUNTERSIGNED</text>
</g>
<g id="LINE_2_">
	<line class="st0" x1="611.5" y1="582.5" x2="431.5" y2="582.5"/>
</g>
<g id="ACAD_x5F_PROXY_x5F_ENTITY">
	<polyline class="st0" points="1,0.5 1,592.5 841,592.5 841,0.5 1,0.5 	"/>
	<polygon points="25.8,10.5 26.2,10.5 26.2,582.2 	"/>
	<polygon points="25.8,10.5 26.2,582.2 25.8,582.8 	"/>
	<polygon points="25.8,582.8 26.2,582.2 830.8,582.2 	"/>
	<polygon points="25.8,582.8 830.8,582.2 831.2,582.8 	"/>
	<polygon points="831.2,582.8 830.8,582.2 830.8,10.8 	"/>
	<polygon points="831.2,582.8 830.8,10.8 831.2,10.2 	"/>
	<polygon points="831.2,10.2 830.8,10.8 26,10.8 	"/>
	<polygon points="831.2,10.2 26,10.8 26,10.2 	"/>
	<line class="st0" x1="26" y1="10.5" x2="1" y2="10.5"/>
	<line class="st0" x1="26" y1="35.5" x2="1" y2="35.5"/>
	<line class="st0" x1="26" y1="60.5" x2="1" y2="60.5"/>
	<line class="st0" x1="26" y1="85.5" x2="1" y2="85.5"/>
	<line class="st0" x1="26" y1="110.5" x2="1" y2="110.5"/>
	<line class="st0" x1="26" y1="135.5" x2="1" y2="135.5"/>
	<line class="st0" x1="26" y1="160.5" x2="1" y2="160.5"/>
	<line class="st0" x1="21" y1="10.5" x2="21" y2="160.5"/>
	<line class="st0" x1="16" y1="10.5" x2="16" y2="160.5"/>
	<line class="st0" x1="11" y1="10.5" x2="11" y2="160.5"/>
	<line class="st0" x1="6" y1="10.5" x2="6" y2="160.5"/>
	<line class="st0" x1="1" y1="10.5" x2="1" y2="160.5"/>
	<line class="st0" x1="1" y1="296.5" x2="31" y2="296.5"/>
	<line class="st0" x1="841" y1="296.5" x2="826" y2="296.5"/>
	<line class="st0" x1="421" y1="0.5" x2="421" y2="15.5"/>
	<line class="st0" x1="421" y1="592.5" x2="421" y2="577.5"/>
</g>
<g id="TEXT_71_">
	<text transform="matrix(0.6479 0 0 1 616.7656 572.2129)" class="st1 st10">会签专业</text>
</g>
<g id="TEXT_73_">
	<text transform="matrix(0.78 0 0 1 617.7181 574.6094)" class="st1 st4">DISC.</text>
</g>
<g id="TEXT_75_">
	<text transform="matrix(0.6478 0 0 1 627.498 578.6934)" class="st1 st10">会签</text>
</g>
<g id="TEXT_78_">
	<text transform="matrix(0.7559 0 0 1 818.0466 517.9242)" class="st1 st6">日期</text>
</g>
<g id="TEXT_80_">
	<text transform="matrix(0.7559 0 0 1 779.3254 517.9237)"><tspan x="0" y="0" class="st1 st6">审</tspan><tspan x="4" y="0" class="st7 st6">定</tspan></text>
</g>
<g id="TEXT_17_">
	<text transform="matrix(0.6479 0 0 1 775.2117 564.9308)" class="st1 st10">比例</text>
</g>
<g id="TEXT_18_">
	<text transform="matrix(0.6479 0 0 1 773.2111 557.8735)" class="st1 st10">设计阶段</text>
</g>
<text transform="matrix(0.6479 0 0 1 774.2119 572.1846)" class="st1 st10">项目号</text>
<g id="TEXT_20_">
	<text transform="matrix(0.6479 0 0 1 775.2119 578.6934)" class="st1 st10">图号</text>
</g>
<text transform="matrix(0.6479 0 0 1 803.4236 557.873)" class="st1 st10">合同号</text>
<text transform="matrix(0.6479 0 0 1 803.4735 564.9304)" class="st1 st10">第</text>
<text transform="matrix(0.6479 0 0 1 810.9017 564.9309)" class="st1 st10">张</text>
<text transform="matrix(0.6479 0 0 1 817.5261 564.9309)" class="st1 st10">共</text>
<text transform="matrix(0.6479 0 0 1 825.8761 564.9307)" class="st1 st10">张</text>
</svg>
