<?xml version="1.0" encoding="utf-8"?>
<!-- Generator: Adobe Illustrator 25.0.1, SVG Export Plug-In . SVG Version: 6.00 Build 0)  -->
<svg version="1.1"
	 id="svg2" inkscape:version="0.48.2 r9819" sodipodi:docname="璁惧1-甯︽ 娉svg" xmlns:cc="http://creativecommons.org/ns#" xmlns:dc="http://purl.org/dc/elements/1.1/" xmlns:inkscape="http://www.inkscape.org/namespaces/inkscape" xmlns:rdf="http://www.w3.org/1999/02/22-rdf-syntax-ns#" xmlns:sodipodi="http://sodipodi.sourceforge.net/DTD/sodipodi-0.dtd" xmlns:svg="http://www.w3.org/2000/svg"
	 xmlns="http://www.w3.org/2000/svg" xmlns:xlink="http://www.w3.org/1999/xlink" x="0px" y="0px" viewBox="0 0 56.7 99.2"
	 style="enable-background:new 0 0 56.7 99.2;" xml:space="preserve">
<style type="text/css">
	.st0{fill:#FFFFFF;}
	.st1{fill:none;stroke:#000000;stroke-width:0.7087;stroke-linecap:round;stroke-linejoin:round;stroke-miterlimit:10;}
	.st2{fill:none;stroke:#000000;stroke-width:0.1417;stroke-linecap:round;stroke-linejoin:round;stroke-miterlimit:10;}
	.st3{fill-rule:evenodd;clip-rule:evenodd;}
</style>
<sodipodi:namedview  bordercolor="#666666" borderopacity="1.0" id="base" inkscape:current-layer="layer1" inkscape:cx="-247.31052" inkscape:cy="477.12073" inkscape:document-units="px" inkscape:pageopacity="0.0" inkscape:pageshadow="2" inkscape:window-height="1005" inkscape:window-maximized="1" inkscape:window-width="1920" inkscape:window-x="-9" inkscape:window-y="-9" inkscape:zoom="0.35355339" pagecolor="#ffffff" showgrid="false">
	</sodipodi:namedview>
<rect x="138.6" y="72.7" class="st0" width="42.8" height="21.4"/>
<rect x="199.7" y="80.6" class="st0" width="42.8" height="21.4"/>
<rect x="115.5" y="55.2" class="st0" width="44.5" height="0"/>
<g id="LINE">
	<line class="st1" x1="6.9" y1="89.5" x2="6.9" y2="10.6"/>
</g>
<g id="LINE_1_">
	<line class="st1" x1="50.3" y1="89.5" x2="50.3" y2="10.6"/>
</g>
<g id="ARC">
	<path class="st1" d="M50.3,10.6c0-5.5-9.7-9.9-21.7-9.9S6.9,5.1,6.9,10.6"/>
</g>
<g id="ARC_1_">
	<path class="st1" d="M6.9,89.5c0,5.5,9.7,9.9,21.7,9.9s21.7-4.4,21.7-9.9"/>
</g>
<g id="LINE_2_">
	<line class="st1" x1="6.9" y1="24.2" x2="50.3" y2="24.2"/>
</g>
<g id="LINE_3_">
	<line class="st1" x1="6.9" y1="74.3" x2="50.3" y2="74.3"/>
</g>
<g id="LINE_4_">
	<line class="st1" x1="6.9" y1="24.2" x2="50.3" y2="74.3"/>
</g>
<g id="LINE_5_">
	<line class="st1" x1="50.3" y1="24.2" x2="6.9" y2="74.3"/>
</g>
<g id="LWPOLYLINE">
	<line class="st2" x1="28.6" y1="0.7" x2="28.6" y2="-19"/>
</g>
<g id="LWPOLYLINE_1_">
	<line class="st2" x1="28.6" y1="99.4" x2="28.6" y2="119.1"/>
</g>
<g id="HATCH">
	<path class="st3" d="M28.6,109.3h-2.8l2.8,6.4l2.8-6.4H28.6L28.6,109.3z M28.6,109.3h2.8H28.6z"/>
</g>
<g id="LINE_10_">
	<line class="st1" x1="28.6" y1="109.3" x2="25.8" y2="109.3"/>
</g>
<g id="LINE_11_">
	<line class="st1" x1="25.8" y1="109.3" x2="28.6" y2="115.7"/>
</g>
<g id="LINE_12_">
	<line class="st1" x1="31.4" y1="109.3" x2="28.6" y2="115.7"/>
</g>
<g id="LINE_13_">
	<line class="st1" x1="28.6" y1="109.3" x2="31.4" y2="109.3"/>
</g>
<g id="LINE_14_">
	<line class="st1" x1="28.6" y1="109.3" x2="31.4" y2="109.3"/>
</g>
<g id="HATCH_1_">
	<path class="st3" d="M28.6-9.2h-2.8l2.8,6.4l2.8-6.4H28.6L28.6-9.2z M28.6-9.2h2.8H28.6z"/>
</g>
<g id="LINE_15_">
	<line class="st1" x1="28.6" y1="-9.2" x2="25.8" y2="-9.2"/>
</g>
<g id="LINE_16_">
	<line class="st1" x1="25.8" y1="-9.2" x2="28.6" y2="-2.8"/>
</g>
<g id="LINE_17_">
	<line class="st1" x1="31.4" y1="-9.2" x2="28.6" y2="-2.8"/>
</g>
<g id="LINE_18_">
	<line class="st1" x1="28.6" y1="-9.2" x2="31.4" y2="-9.2"/>
</g>
<g id="LINE_19_">
	<line class="st1" x1="28.6" y1="-9.2" x2="31.4" y2="-9.2"/>
</g>
</svg>
